<?xml version="1.0" encoding="UTF-8"?>
<svg width="414px" height="146px" viewBox="0 0 414 146" version="1.1" xmlns="http://www.w3.org/2000/svg" xmlns:xlink="http://www.w3.org/1999/xlink" jetway-hooks="{}">
    <title>feature-release-phases</title>
    <defs>
        <filter x="-15.5%" y="-21.2%" width="130.9%" height="142.5%" filterUnits="objectBoundingBox" id="filter-1">
            <feOffset dx="0" dy="1" in="SourceAlpha" result="shadowOffsetOuter1"></feOffset>
            <feGaussianBlur stdDeviation="1.5" in="shadowOffsetOuter1" result="shadowBlurOuter1"></feGaussianBlur>
            <feColorMatrix values="0 0 0 0 0   0 0 0 0 0   0 0 0 0 0  0 0 0 0.5 0" type="matrix" in="shadowBlurOuter1" result="shadowMatrixOuter1"></feColorMatrix>
            <feMerge>
                <feMergeNode in="shadowMatrixOuter1"></feMergeNode>
                <feMergeNode in="SourceGraphic"></feMergeNode>
            </feMerge>
        </filter>
    </defs>
    <g jetway-hook-id="384114D0-157C-48B9-9FEE-5E693E26520A" id="feature-release-phases" stroke="none" stroke-width="1" fill="none" fill-rule="evenodd">
        <rect jetway-hook-id="7278258F-E129-4CA8-8522-043B7140063F" id="Rectangle" stroke="#3C4043" fill="#FFFFFF" stroke-linejoin="round" x="1" y="33" width="411" height="111"></rect>
        <g jetway-hook-id="96AB9862-59AC-455B-A894-77EEDFB76DAC" id="Group-11" transform="translate(12.561653, 113.288000)">
            <path d="M1.936,11.712 L2.992,8.768 L7.664,8.768 L8.72,11.712 L10.656,11.712 L6.32,0.256 L4.32,0.256 L0,11.712 L1.936,11.712 Z M7.088,7.136 L3.568,7.136 L4.848,3.632 L5.28,2.32 L5.376,2.32 L5.808,3.632 L7.088,7.136 Z M13.5188693,11.712 L13.5188693,0.256 L11.7908693,0.256 L11.7908693,11.712 L13.5188693,11.712 Z M17.1017387,15.168 L17.1017387,11.76 L17.0057387,10.624 L17.1017387,10.624 C17.3364053,10.9973333 17.6857387,11.3146667 18.1497387,11.576 C18.6137387,11.8373333 19.139072,11.968 19.7257387,11.968 C20.4617387,11.968 21.1284053,11.784 21.7257387,11.416 C22.323072,11.048 22.7924053,10.5333333 23.1337387,9.872 C23.475072,9.21066667 23.6457387,8.464 23.6457387,7.632 C23.6457387,6.8 23.475072,6.056 23.1337387,5.4 C22.7924053,4.744 22.323072,4.22933333 21.7257387,3.856 C21.1284053,3.48266667 20.4617387,3.296 19.7257387,3.296 C19.139072,3.296 18.6137387,3.42666667 18.1497387,3.688 C17.6857387,3.94933333 17.3364053,4.272 17.1017387,4.656 L17.1017387,4.656 L17.0057387,4.656 L17.0057387,3.552 L15.3737387,3.552 L15.3737387,15.168 L17.1017387,15.168 Z M19.4697387,10.384 C19.043072,10.384 18.6404053,10.2693333 18.2617387,10.04 C17.883072,9.81066667 17.579072,9.488 17.3497387,9.072 C17.1204053,8.656 17.0057387,8.176 17.0057387,7.632 C17.0057387,7.088 17.1204053,6.608 17.3497387,6.192 C17.579072,5.776 17.883072,5.45333333 18.2617387,5.224 C18.6404053,4.99466667 19.043072,4.88 19.4697387,4.88 C19.907072,4.88 20.315072,4.99466667 20.6937387,5.224 C21.0724053,5.45333333 21.3737387,5.776 21.5977387,6.192 C21.8217387,6.608 21.9337387,7.088 21.9337387,7.632 C21.9337387,8.176 21.8217387,8.656 21.5977387,9.072 C21.3737387,9.488 21.0724053,9.81066667 20.6937387,10.04 C20.315072,10.2693333 19.907072,10.384 19.4697387,10.384 Z M26.684608,11.712 L26.684608,7.36 C26.684608,6.93333333 26.7779413,6.528 26.964608,6.144 C27.1512747,5.76 27.4072747,5.45333333 27.732608,5.224 C28.0579413,4.99466667 28.4179413,4.88 28.812608,4.88 C29.3352747,4.88 29.764608,5.04 30.100608,5.36 C30.436608,5.68 30.604608,6.15466667 30.604608,6.784 L30.604608,6.784 L30.604608,11.712 L32.316608,11.712 L32.316608,6.56 C32.316608,5.568 32.0552747,4.776 31.532608,4.184 C31.0099413,3.592 30.252608,3.296 29.260608,3.296 C28.7059413,3.296 28.196608,3.424 27.732608,3.68 C27.268608,3.936 26.9192747,4.26666667 26.684608,4.672 L26.684608,4.672 L26.588608,4.672 L26.684608,3.392 L26.684608,0.256 L24.956608,0.256 L24.956608,11.712 L26.684608,11.712 Z M36.6514773,11.968 C37.206144,11.968 37.702144,11.848 38.1394773,11.608 C38.5768107,11.368 38.9128107,11.0666667 39.1474773,10.704 L39.1474773,10.704 L39.2434773,10.704 L39.2434773,11.712 L40.9234773,11.712 L40.9234773,6.608 C40.9234773,5.56266667 40.6008107,4.74933333 39.9554773,4.168 C39.310144,3.58666667 38.4008107,3.296 37.2274773,3.296 C36.534144,3.296 35.8968107,3.43466667 35.3154773,3.712 C34.734144,3.98933333 34.2674773,4.37866667 33.9154773,4.88 L33.9154773,4.88 L35.0994773,5.792 C35.3234773,5.472 35.622144,5.21866667 35.9954773,5.032 C36.3688107,4.84533333 36.7634773,4.752 37.1794773,4.752 C37.7874773,4.752 38.2834773,4.91466667 38.6674773,5.24 C39.0514773,5.56533333 39.2434773,5.98933333 39.2434773,6.512 L39.2434773,6.512 L39.2434773,6.944 C39.0088107,6.82666667 38.6968107,6.72266667 38.3074773,6.632 C37.918144,6.54133333 37.4834773,6.496 37.0034773,6.496 C36.374144,6.496 35.8034773,6.60533333 35.2914773,6.824 C34.7794773,7.04266667 34.374144,7.35733333 34.0754773,7.768 C33.7768107,8.17866667 33.6274773,8.66666667 33.6274773,9.232 C33.6274773,9.76533333 33.7554773,10.24 34.0114773,10.656 C34.2674773,11.072 34.6248107,11.3946667 35.0834773,11.624 C35.542144,11.8533333 36.0648107,11.968 36.6514773,11.968 Z M36.9554773,10.56 C36.4754773,10.56 36.0914773,10.4373333 35.8034773,10.192 C35.5154773,9.94666667 35.3714773,9.632 35.3714773,9.248 C35.3714773,8.81066667 35.5288107,8.45866667 35.8434773,8.192 C36.158144,7.92533333 36.6514773,7.792 37.3234773,7.792 C37.686144,7.792 38.0328107,7.83466667 38.3634773,7.92 C38.694144,8.00533333 38.9874773,8.12266667 39.2434773,8.272 C39.2434773,8.67733333 39.1448107,9.056 38.9474773,9.408 C38.750144,9.76 38.4754773,10.04 38.1234773,10.248 C37.7714773,10.456 37.382144,10.56 36.9554773,10.56 Z M49.673216,11.84 C50.1745493,11.84 50.6065493,11.76 50.969216,11.6 L50.969216,11.6 L50.969216,9.92 C50.7985493,10.0266667 50.6438827,10.104 50.505216,10.152 C50.3665493,10.2 50.201216,10.224 50.009216,10.224 C49.6358827,10.224 49.3585493,10.1226667 49.177216,9.92 C49.0065493,9.73866667 48.921216,9.424 48.921216,8.976 L48.921216,8.976 L48.921216,5.056 L50.921216,5.056 L50.921216,3.552 L48.921216,3.552 L48.921216,1.248 L47.193216,1.248 L47.193216,3.552 L45.769216,3.552 L45.769216,5.056 L47.193216,5.056 L47.193216,9.344 C47.193216,10.144 47.4225493,10.7626667 47.881216,11.2 C48.0838827,11.4026667 48.3425493,11.56 48.657216,11.672 C48.9718827,11.784 49.3105493,11.84 49.673216,11.84 Z M55.8960853,11.968 C56.7600853,11.968 57.5014187,11.776 58.1200853,11.392 C58.738752,11.008 59.234752,10.48 59.6080853,9.808 L59.6080853,9.808 L58.1840853,9.12 C57.9600853,9.51466667 57.6614187,9.832 57.2880853,10.072 C56.914752,10.312 56.466752,10.432 55.9440853,10.432 C55.3040853,10.432 54.7440853,10.2213333 54.2640853,9.8 C53.7840853,9.37866667 53.506752,8.77866667 53.4320853,8 L53.4320853,8 L59.7360853,8 C59.7574187,7.85066667 59.7680853,7.66933333 59.7680853,7.456 C59.7680853,6.656 59.610752,5.94133333 59.2960853,5.312 C58.9814187,4.68266667 58.5254187,4.18933333 57.9280853,3.832 C57.330752,3.47466667 56.6214187,3.296 55.8000853,3.296 C55.0214187,3.296 54.322752,3.49333333 53.7040853,3.888 C53.0854187,4.28266667 52.602752,4.81333333 52.2560853,5.48 C51.9094187,6.14666667 51.7360853,6.86933333 51.7360853,7.648 C51.7360853,8.46933333 51.914752,9.208 52.2720853,9.864 C52.6294187,10.52 53.1254187,11.0346667 53.7600853,11.408 C54.394752,11.7813333 55.106752,11.968 55.8960853,11.968 Z M58.0560853,6.704 L53.5280853,6.704 C53.6774187,6.11733333 53.9520853,5.648 54.3520853,5.296 C54.7520853,4.944 55.2400853,4.768 55.8160853,4.768 C56.2960853,4.768 56.698752,4.86666667 57.0240853,5.064 C57.3494187,5.26133333 57.5974187,5.50933333 57.7680853,5.808 C57.938752,6.10666667 58.034752,6.40533333 58.0560853,6.704 L58.0560853,6.704 Z M64.3109547,11.968 C64.9296213,11.968 65.4949547,11.8613333 66.0069547,11.648 C66.5189547,11.4346667 66.9216213,11.1333333 67.2149547,10.744 C67.508288,10.3546667 67.6549547,9.904 67.6549547,9.392 C67.6549547,8.79466667 67.4496213,8.29333333 67.0389547,7.888 C66.628288,7.48266667 66.0229547,7.17866667 65.2229547,6.976 L65.2229547,6.976 L64.0389547,6.688 C63.2069547,6.47466667 62.7909547,6.128 62.7909547,5.648 C62.7909547,5.392 62.9269547,5.17866667 63.1989547,5.008 C63.4709547,4.83733333 63.8096213,4.752 64.2149547,4.752 C65.0469547,4.752 65.628288,5.07733333 65.9589547,5.728 L65.9589547,5.728 L67.4469547,5.056 C67.1909547,4.48 66.7776213,4.04266667 66.2069547,3.744 C65.636288,3.44533333 64.9669547,3.296 64.1989547,3.296 C63.6336213,3.296 63.1136213,3.39466667 62.6389547,3.592 C62.164288,3.78933333 61.7856213,4.06933333 61.5029547,4.432 C61.220288,4.79466667 61.0789547,5.21066667 61.0789547,5.68 C61.0789547,6.29866667 61.292288,6.81066667 61.7189547,7.216 C62.1456213,7.62133333 62.684288,7.904 63.3349547,8.064 L63.3349547,8.064 L64.3109547,8.288 C64.8656213,8.416 65.2736213,8.568 65.5349547,8.744 C65.796288,8.92 65.9269547,9.15733333 65.9269547,9.456 C65.9269547,9.78666667 65.772288,10.0346667 65.4629547,10.2 C65.1536213,10.3653333 64.7696213,10.448 64.3109547,10.448 C63.8629547,10.448 63.4629547,10.3333333 63.1109547,10.104 C62.7589547,9.87466667 62.4869547,9.54133333 62.2949547,9.104 L62.2949547,9.104 L60.7429547,9.776 C60.988288,10.4266667 61.412288,10.9546667 62.0149547,11.36 C62.6176213,11.7653333 63.3829547,11.968 64.3109547,11.968 Z M72.309824,11.84 C72.8111573,11.84 73.2431573,11.76 73.605824,11.6 L73.605824,11.6 L73.605824,9.92 C73.4351573,10.0266667 73.2804907,10.104 73.141824,10.152 C73.0031573,10.2 72.837824,10.224 72.645824,10.224 C72.2724907,10.224 71.9951573,10.1226667 71.813824,9.92 C71.6431573,9.73866667 71.557824,9.424 71.557824,8.976 L71.557824,8.976 L71.557824,5.056 L73.557824,5.056 L73.557824,3.552 L71.557824,3.552 L71.557824,1.248 L69.829824,1.248 L69.829824,3.552 L68.405824,3.552 L68.405824,5.056 L69.829824,5.056 L69.829824,9.344 C69.829824,10.144 70.0591573,10.7626667 70.517824,11.2 C70.7204907,11.4026667 70.9791573,11.56 71.293824,11.672 C71.6084907,11.784 71.9471573,11.84 72.309824,11.84 Z" jetway-hook-id="20667FAB-0414-4D88-84FE-7F0FE702F046" id="Alphatest" fill="#3C4043" fill-rule="nonzero"></path>
            <path d="M134.323435,11.712 C134.974101,11.712 135.574101,11.576 136.123435,11.304 C136.672768,11.032 137.110101,10.6533333 137.435435,10.168 C137.760768,9.68266667 137.923435,9.12533333 137.923435,8.496 C137.923435,7.856 137.747435,7.30133333 137.395435,6.832 C137.043435,6.36266667 136.568768,6.02666667 135.971435,5.824 L135.971435,5.824 L135.971435,5.744 C136.440768,5.52 136.816768,5.19733333 137.099435,4.776 C137.382101,4.35466667 137.523435,3.86133333 137.523435,3.296 C137.523435,2.73066667 137.371435,2.216 137.067435,1.752 C136.763435,1.288 136.350101,0.922666667 135.827435,0.656 C135.304768,0.389333333 134.739435,0.256 134.131435,0.256 L134.131435,0.256 L129.843435,0.256 L129.843435,11.712 L134.323435,11.712 Z M134.051435,5.072 L131.603435,5.072 L131.603435,1.872 L134.115435,1.872 C134.616768,1.872 135.024768,2.02933333 135.339435,2.344 C135.654101,2.65866667 135.811435,3.02933333 135.811435,3.456 C135.811435,3.88266667 135.651435,4.25866667 135.331435,4.584 C135.011435,4.90933333 134.584768,5.072 134.051435,5.072 L134.051435,5.072 Z M134.323435,10.08 L131.603435,10.08 L131.603435,6.64 L134.259435,6.64 C134.835435,6.64 135.296768,6.81066667 135.643435,7.152 C135.990101,7.49333333 136.163435,7.89866667 136.163435,8.368 C136.163435,8.83733333 135.995435,9.24 135.659435,9.576 C135.323435,9.912 134.878101,10.08 134.323435,10.08 L134.323435,10.08 Z M143.186304,11.968 C144.050304,11.968 144.791637,11.776 145.410304,11.392 C146.028971,11.008 146.524971,10.48 146.898304,9.808 L146.898304,9.808 L145.474304,9.12 C145.250304,9.51466667 144.951637,9.832 144.578304,10.072 C144.204971,10.312 143.756971,10.432 143.234304,10.432 C142.594304,10.432 142.034304,10.2213333 141.554304,9.8 C141.074304,9.37866667 140.796971,8.77866667 140.722304,8 L140.722304,8 L147.026304,8 C147.047637,7.85066667 147.058304,7.66933333 147.058304,7.456 C147.058304,6.656 146.900971,5.94133333 146.586304,5.312 C146.271637,4.68266667 145.815637,4.18933333 145.218304,3.832 C144.620971,3.47466667 143.911637,3.296 143.090304,3.296 C142.311637,3.296 141.612971,3.49333333 140.994304,3.888 C140.375637,4.28266667 139.892971,4.81333333 139.546304,5.48 C139.199637,6.14666667 139.026304,6.86933333 139.026304,7.648 C139.026304,8.46933333 139.204971,9.208 139.562304,9.864 C139.919637,10.52 140.415637,11.0346667 141.050304,11.408 C141.684971,11.7813333 142.396971,11.968 143.186304,11.968 Z M145.346304,6.704 L140.818304,6.704 C140.967637,6.11733333 141.242304,5.648 141.642304,5.296 C142.042304,4.944 142.530304,4.768 143.106304,4.768 C143.586304,4.768 143.988971,4.86666667 144.314304,5.064 C144.639637,5.26133333 144.887637,5.50933333 145.058304,5.808 C145.228971,6.10666667 145.324971,6.40533333 145.346304,6.704 L145.346304,6.704 Z M151.649173,11.84 C152.150507,11.84 152.582507,11.76 152.945173,11.6 L152.945173,11.6 L152.945173,9.92 C152.774507,10.0266667 152.61984,10.104 152.481173,10.152 C152.342507,10.2 152.177173,10.224 151.985173,10.224 C151.61184,10.224 151.334507,10.1226667 151.153173,9.92 C150.982507,9.73866667 150.897173,9.424 150.897173,8.976 L150.897173,8.976 L150.897173,5.056 L152.897173,5.056 L152.897173,3.552 L150.897173,3.552 L150.897173,1.248 L149.169173,1.248 L149.169173,3.552 L147.745173,3.552 L147.745173,5.056 L149.169173,5.056 L149.169173,9.344 C149.169173,10.144 149.398507,10.7626667 149.857173,11.2 C150.05984,11.4026667 150.318507,11.56 150.633173,11.672 C150.94784,11.784 151.286507,11.84 151.649173,11.84 Z M156.864043,11.968 C157.418709,11.968 157.914709,11.848 158.352043,11.608 C158.789376,11.368 159.125376,11.0666667 159.360043,10.704 L159.360043,10.704 L159.456043,10.704 L159.456043,11.712 L161.136043,11.712 L161.136043,6.608 C161.136043,5.56266667 160.813376,4.74933333 160.168043,4.168 C159.522709,3.58666667 158.613376,3.296 157.440043,3.296 C156.746709,3.296 156.109376,3.43466667 155.528043,3.712 C154.946709,3.98933333 154.480043,4.37866667 154.128043,4.88 L154.128043,4.88 L155.312043,5.792 C155.536043,5.472 155.834709,5.21866667 156.208043,5.032 C156.581376,4.84533333 156.976043,4.752 157.392043,4.752 C158.000043,4.752 158.496043,4.91466667 158.880043,5.24 C159.264043,5.56533333 159.456043,5.98933333 159.456043,6.512 L159.456043,6.512 L159.456043,6.944 C159.221376,6.82666667 158.909376,6.72266667 158.520043,6.632 C158.130709,6.54133333 157.696043,6.496 157.216043,6.496 C156.586709,6.496 156.016043,6.60533333 155.504043,6.824 C154.992043,7.04266667 154.586709,7.35733333 154.288043,7.768 C153.989376,8.17866667 153.840043,8.66666667 153.840043,9.232 C153.840043,9.76533333 153.968043,10.24 154.224043,10.656 C154.480043,11.072 154.837376,11.3946667 155.296043,11.624 C155.754709,11.8533333 156.277376,11.968 156.864043,11.968 Z M157.168043,10.56 C156.688043,10.56 156.304043,10.4373333 156.016043,10.192 C155.728043,9.94666667 155.584043,9.632 155.584043,9.248 C155.584043,8.81066667 155.741376,8.45866667 156.056043,8.192 C156.370709,7.92533333 156.864043,7.792 157.536043,7.792 C157.898709,7.792 158.245376,7.83466667 158.576043,7.92 C158.906709,8.00533333 159.200043,8.12266667 159.456043,8.272 C159.456043,8.67733333 159.357376,9.056 159.160043,9.408 C158.962709,9.76 158.688043,10.04 158.336043,10.248 C157.984043,10.456 157.594709,10.56 157.168043,10.56 Z M169.885781,11.84 C170.387115,11.84 170.819115,11.76 171.181781,11.6 L171.181781,11.6 L171.181781,9.92 C171.011115,10.0266667 170.856448,10.104 170.717781,10.152 C170.579115,10.2 170.413781,10.224 170.221781,10.224 C169.848448,10.224 169.571115,10.1226667 169.389781,9.92 C169.219115,9.73866667 169.133781,9.424 169.133781,8.976 L169.133781,8.976 L169.133781,5.056 L171.133781,5.056 L171.133781,3.552 L169.133781,3.552 L169.133781,1.248 L167.405781,1.248 L167.405781,3.552 L165.981781,3.552 L165.981781,5.056 L167.405781,5.056 L167.405781,9.344 C167.405781,10.144 167.635115,10.7626667 168.093781,11.2 C168.296448,11.4026667 168.555115,11.56 168.869781,11.672 C169.184448,11.784 169.523115,11.84 169.885781,11.84 Z M176.108651,11.968 C176.972651,11.968 177.713984,11.776 178.332651,11.392 C178.951317,11.008 179.447317,10.48 179.820651,9.808 L179.820651,9.808 L178.396651,9.12 C178.172651,9.51466667 177.873984,9.832 177.500651,10.072 C177.127317,10.312 176.679317,10.432 176.156651,10.432 C175.516651,10.432 174.956651,10.2213333 174.476651,9.8 C173.996651,9.37866667 173.719317,8.77866667 173.644651,8 L173.644651,8 L179.948651,8 C179.969984,7.85066667 179.980651,7.66933333 179.980651,7.456 C179.980651,6.656 179.823317,5.94133333 179.508651,5.312 C179.193984,4.68266667 178.737984,4.18933333 178.140651,3.832 C177.543317,3.47466667 176.833984,3.296 176.012651,3.296 C175.233984,3.296 174.535317,3.49333333 173.916651,3.888 C173.297984,4.28266667 172.815317,4.81333333 172.468651,5.48 C172.121984,6.14666667 171.948651,6.86933333 171.948651,7.648 C171.948651,8.46933333 172.127317,9.208 172.484651,9.864 C172.841984,10.52 173.337984,11.0346667 173.972651,11.408 C174.607317,11.7813333 175.319317,11.968 176.108651,11.968 Z M178.268651,6.704 L173.740651,6.704 C173.889984,6.11733333 174.164651,5.648 174.564651,5.296 C174.964651,4.944 175.452651,4.768 176.028651,4.768 C176.508651,4.768 176.911317,4.86666667 177.236651,5.064 C177.561984,5.26133333 177.809984,5.50933333 177.980651,5.808 C178.151317,6.10666667 178.247317,6.40533333 178.268651,6.704 L178.268651,6.704 Z M184.52352,11.968 C185.142187,11.968 185.70752,11.8613333 186.21952,11.648 C186.73152,11.4346667 187.134187,11.1333333 187.42752,10.744 C187.720853,10.3546667 187.86752,9.904 187.86752,9.392 C187.86752,8.79466667 187.662187,8.29333333 187.25152,7.888 C186.840853,7.48266667 186.23552,7.17866667 185.43552,6.976 L185.43552,6.976 L184.25152,6.688 C183.41952,6.47466667 183.00352,6.128 183.00352,5.648 C183.00352,5.392 183.13952,5.17866667 183.41152,5.008 C183.68352,4.83733333 184.022187,4.752 184.42752,4.752 C185.25952,4.752 185.840853,5.07733333 186.17152,5.728 L186.17152,5.728 L187.65952,5.056 C187.40352,4.48 186.990187,4.04266667 186.41952,3.744 C185.848853,3.44533333 185.17952,3.296 184.41152,3.296 C183.846187,3.296 183.326187,3.39466667 182.85152,3.592 C182.376853,3.78933333 181.998187,4.06933333 181.71552,4.432 C181.432853,4.79466667 181.29152,5.21066667 181.29152,5.68 C181.29152,6.29866667 181.504853,6.81066667 181.93152,7.216 C182.358187,7.62133333 182.896853,7.904 183.54752,8.064 L183.54752,8.064 L184.52352,8.288 C185.078187,8.416 185.486187,8.568 185.74752,8.744 C186.008853,8.92 186.13952,9.15733333 186.13952,9.456 C186.13952,9.78666667 185.984853,10.0346667 185.67552,10.2 C185.366187,10.3653333 184.982187,10.448 184.52352,10.448 C184.07552,10.448 183.67552,10.3333333 183.32352,10.104 C182.97152,9.87466667 182.69952,9.54133333 182.50752,9.104 L182.50752,9.104 L180.95552,9.776 C181.200853,10.4266667 181.624853,10.9546667 182.22752,11.36 C182.830187,11.7653333 183.59552,11.968 184.52352,11.968 Z M192.522389,11.84 C193.023723,11.84 193.455723,11.76 193.818389,11.6 L193.818389,11.6 L193.818389,9.92 C193.647723,10.0266667 193.493056,10.104 193.354389,10.152 C193.215723,10.2 193.050389,10.224 192.858389,10.224 C192.485056,10.224 192.207723,10.1226667 192.026389,9.92 C191.855723,9.73866667 191.770389,9.424 191.770389,8.976 L191.770389,8.976 L191.770389,5.056 L193.770389,5.056 L193.770389,3.552 L191.770389,3.552 L191.770389,1.248 L190.042389,1.248 L190.042389,3.552 L188.618389,3.552 L188.618389,5.056 L190.042389,5.056 L190.042389,9.344 C190.042389,10.144 190.271723,10.7626667 190.730389,11.2 C190.933056,11.4026667 191.191723,11.56 191.506389,11.672 C191.821056,11.784 192.159723,11.84 192.522389,11.84 Z" jetway-hook-id="B506B9EF-40FB-4AB6-9A6A-BA03A65EFB9C" id="Betatest" fill="#3C4043" fill-rule="nonzero"></path>
            <path d="M255.329653,11.968 C256.214987,11.968 257.014987,11.8213333 257.729653,11.528 C258.44432,11.2346667 259.057653,10.8106667 259.569653,10.256 C260.049653,9.75466667 260.40432,9.176 260.633653,8.52 C260.862987,7.864 260.977653,7.17333333 260.977653,6.448 C260.977653,6.192 260.945653,5.88266667 260.881653,5.52 L260.881653,5.52 L255.313653,5.52 L255.313653,7.072 L259.249653,7.072 C259.185653,7.50933333 259.070987,7.90933333 258.905653,8.272 C258.74032,8.63466667 258.534987,8.93333333 258.289653,9.168 C257.53232,9.92533333 256.550987,10.304 255.345653,10.304 C254.58832,10.304 253.886987,10.1253333 253.241653,9.768 C252.59632,9.41066667 252.078987,8.904 251.689653,8.248 C251.30032,7.592 251.105653,6.83733333 251.105653,5.984 C251.105653,5.14133333 251.297653,4.38933333 251.681653,3.728 C252.065653,3.06666667 252.582987,2.55733333 253.233653,2.2 C253.88432,1.84266667 254.582987,1.664 255.329653,1.664 C256.598987,1.664 257.622987,2.10133333 258.401653,2.976 L258.401653,2.976 L259.617653,1.76 C259.105653,1.20533333 258.481653,0.773333333 257.745653,0.464 C257.009653,0.154666667 256.20432,0 255.329653,0 C254.241653,0 253.238987,0.261333333 252.321653,0.784 C251.40432,1.30666667 250.67632,2.024 250.137653,2.936 C249.598987,3.848 249.329653,4.864 249.329653,5.984 C249.329653,7.104 249.598987,8.12 250.137653,9.032 C250.67632,9.944 251.40432,10.6613333 252.321653,11.184 C253.238987,11.7066667 254.241653,11.968 255.329653,11.968 Z M266.256523,11.968 C267.120523,11.968 267.861856,11.776 268.480523,11.392 C269.099189,11.008 269.595189,10.48 269.968523,9.808 L269.968523,9.808 L268.544523,9.12 C268.320523,9.51466667 268.021856,9.832 267.648523,10.072 C267.275189,10.312 266.827189,10.432 266.304523,10.432 C265.664523,10.432 265.104523,10.2213333 264.624523,9.8 C264.144523,9.37866667 263.867189,8.77866667 263.792523,8 L263.792523,8 L270.096523,8 C270.117856,7.85066667 270.128523,7.66933333 270.128523,7.456 C270.128523,6.656 269.971189,5.94133333 269.656523,5.312 C269.341856,4.68266667 268.885856,4.18933333 268.288523,3.832 C267.691189,3.47466667 266.981856,3.296 266.160523,3.296 C265.381856,3.296 264.683189,3.49333333 264.064523,3.888 C263.445856,4.28266667 262.963189,4.81333333 262.616523,5.48 C262.269856,6.14666667 262.096523,6.86933333 262.096523,7.648 C262.096523,8.46933333 262.275189,9.208 262.632523,9.864 C262.989856,10.52 263.485856,11.0346667 264.120523,11.408 C264.755189,11.7813333 265.467189,11.968 266.256523,11.968 Z M268.416523,6.704 L263.888523,6.704 C264.037856,6.11733333 264.312523,5.648 264.712523,5.296 C265.112523,4.944 265.600523,4.768 266.176523,4.768 C266.656523,4.768 267.059189,4.86666667 267.384523,5.064 C267.709856,5.26133333 267.957856,5.50933333 268.128523,5.808 C268.299189,6.10666667 268.395189,6.40533333 268.416523,6.704 L268.416523,6.704 Z M273.343392,11.712 L273.343392,7.328 C273.343392,6.89066667 273.431392,6.48533333 273.607392,6.112 C273.783392,5.73866667 274.028725,5.44 274.343392,5.216 C274.658059,4.992 275.018059,4.88 275.423392,4.88 C275.978059,4.88 276.415392,5.03733333 276.735392,5.352 C277.055392,5.66666667 277.215392,6.144 277.215392,6.784 L277.215392,6.784 L277.215392,11.712 L278.927392,11.712 L278.927392,6.56 C278.927392,5.54666667 278.671392,4.74933333 278.159392,4.168 C277.647392,3.58666667 276.900725,3.296 275.919392,3.296 C275.375392,3.296 274.868725,3.424 274.399392,3.68 C273.930059,3.936 273.578059,4.26666667 273.343392,4.672 L273.343392,4.672 L273.247392,4.672 L273.247392,3.552 L271.615392,3.552 L271.615392,11.712 L273.343392,11.712 Z M284.510261,11.968 C285.374261,11.968 286.115595,11.776 286.734261,11.392 C287.352928,11.008 287.848928,10.48 288.222261,9.808 L288.222261,9.808 L286.798261,9.12 C286.574261,9.51466667 286.275595,9.832 285.902261,10.072 C285.528928,10.312 285.080928,10.432 284.558261,10.432 C283.918261,10.432 283.358261,10.2213333 282.878261,9.8 C282.398261,9.37866667 282.120928,8.77866667 282.046261,8 L282.046261,8 L288.350261,8 C288.371595,7.85066667 288.382261,7.66933333 288.382261,7.456 C288.382261,6.656 288.224928,5.94133333 287.910261,5.312 C287.595595,4.68266667 287.139595,4.18933333 286.542261,3.832 C285.944928,3.47466667 285.235595,3.296 284.414261,3.296 C283.635595,3.296 282.936928,3.49333333 282.318261,3.888 C281.699595,4.28266667 281.216928,4.81333333 280.870261,5.48 C280.523595,6.14666667 280.350261,6.86933333 280.350261,7.648 C280.350261,8.46933333 280.528928,9.208 280.886261,9.864 C281.243595,10.52 281.739595,11.0346667 282.374261,11.408 C283.008928,11.7813333 283.720928,11.968 284.510261,11.968 Z M286.670261,6.704 L282.142261,6.704 C282.291595,6.11733333 282.566261,5.648 282.966261,5.296 C283.366261,4.944 283.854261,4.768 284.430261,4.768 C284.910261,4.768 285.312928,4.86666667 285.638261,5.064 C285.963595,5.26133333 286.211595,5.50933333 286.382261,5.808 C286.552928,6.10666667 286.648928,6.40533333 286.670261,6.704 L286.670261,6.704 Z M291.597131,11.712 L291.597131,7.392 C291.597131,6.72 291.794464,6.14933333 292.189131,5.68 C292.583797,5.21066667 293.085131,4.976 293.693131,4.976 C294.098464,4.976 294.519797,5.072 294.957131,5.264 L294.957131,5.264 L294.957131,3.472 C294.669131,3.36533333 294.338464,3.312 293.965131,3.312 C293.453131,3.312 292.975797,3.448 292.533131,3.72 C292.090464,3.992 291.778464,4.336 291.597131,4.752 L291.597131,4.752 L291.501131,4.752 L291.501131,3.552 L289.869131,3.552 L289.869131,11.712 L291.597131,11.712 Z M298.444,11.968 C298.998667,11.968 299.494667,11.848 299.932,11.608 C300.369333,11.368 300.705333,11.0666667 300.94,10.704 L300.94,10.704 L301.036,10.704 L301.036,11.712 L302.716,11.712 L302.716,6.608 C302.716,5.56266667 302.393333,4.74933333 301.748,4.168 C301.102667,3.58666667 300.193333,3.296 299.02,3.296 C298.326667,3.296 297.689333,3.43466667 297.108,3.712 C296.526667,3.98933333 296.06,4.37866667 295.708,4.88 L295.708,4.88 L296.892,5.792 C297.116,5.472 297.414667,5.21866667 297.788,5.032 C298.161333,4.84533333 298.556,4.752 298.972,4.752 C299.58,4.752 300.076,4.91466667 300.46,5.24 C300.844,5.56533333 301.036,5.98933333 301.036,6.512 L301.036,6.512 L301.036,6.944 C300.801333,6.82666667 300.489333,6.72266667 300.1,6.632 C299.710667,6.54133333 299.276,6.496 298.796,6.496 C298.166667,6.496 297.596,6.60533333 297.084,6.824 C296.572,7.04266667 296.166667,7.35733333 295.868,7.768 C295.569333,8.17866667 295.42,8.66666667 295.42,9.232 C295.42,9.76533333 295.548,10.24 295.804,10.656 C296.06,11.072 296.417333,11.3946667 296.876,11.624 C297.334667,11.8533333 297.857333,11.968 298.444,11.968 Z M298.748,10.56 C298.268,10.56 297.884,10.4373333 297.596,10.192 C297.308,9.94666667 297.164,9.632 297.164,9.248 C297.164,8.81066667 297.321333,8.45866667 297.636,8.192 C297.950667,7.92533333 298.444,7.792 299.116,7.792 C299.478667,7.792 299.825333,7.83466667 300.156,7.92 C300.486667,8.00533333 300.78,8.12266667 301.036,8.272 C301.036,8.67733333 300.937333,9.056 300.74,9.408 C300.542667,9.76 300.268,10.04 299.916,10.248 C299.564,10.456 299.174667,10.56 298.748,10.56 Z M306.234869,11.712 L306.234869,0.256 L304.506869,0.256 L304.506869,11.712 L306.234869,11.712 Z M314.328608,11.968 C314.883275,11.968 315.379275,11.848 315.816608,11.608 C316.253941,11.368 316.589941,11.0666667 316.824608,10.704 L316.824608,10.704 L316.920608,10.704 L316.920608,11.712 L318.600608,11.712 L318.600608,6.608 C318.600608,5.56266667 318.277941,4.74933333 317.632608,4.168 C316.987275,3.58666667 316.077941,3.296 314.904608,3.296 C314.211275,3.296 313.573941,3.43466667 312.992608,3.712 C312.411275,3.98933333 311.944608,4.37866667 311.592608,4.88 L311.592608,4.88 L312.776608,5.792 C313.000608,5.472 313.299275,5.21866667 313.672608,5.032 C314.045941,4.84533333 314.440608,4.752 314.856608,4.752 C315.464608,4.752 315.960608,4.91466667 316.344608,5.24 C316.728608,5.56533333 316.920608,5.98933333 316.920608,6.512 L316.920608,6.512 L316.920608,6.944 C316.685941,6.82666667 316.373941,6.72266667 315.984608,6.632 C315.595275,6.54133333 315.160608,6.496 314.680608,6.496 C314.051275,6.496 313.480608,6.60533333 312.968608,6.824 C312.456608,7.04266667 312.051275,7.35733333 311.752608,7.768 C311.453941,8.17866667 311.304608,8.66666667 311.304608,9.232 C311.304608,9.76533333 311.432608,10.24 311.688608,10.656 C311.944608,11.072 312.301941,11.3946667 312.760608,11.624 C313.219275,11.8533333 313.741941,11.968 314.328608,11.968 Z M314.632608,10.56 C314.152608,10.56 313.768608,10.4373333 313.480608,10.192 C313.192608,9.94666667 313.048608,9.632 313.048608,9.248 C313.048608,8.81066667 313.205941,8.45866667 313.520608,8.192 C313.835275,7.92533333 314.328608,7.792 315.000608,7.792 C315.363275,7.792 315.709941,7.83466667 316.040608,7.92 C316.371275,8.00533333 316.664608,8.12266667 316.920608,8.272 C316.920608,8.67733333 316.821941,9.056 316.624608,9.408 C316.427275,9.76 316.152608,10.04 315.800608,10.248 C315.448608,10.456 315.059275,10.56 314.632608,10.56 Z M324.439477,11.712 L327.847477,3.552 L325.959477,3.552 L323.623477,9.488 L323.543477,9.488 L321.255477,3.552 L319.335477,3.552 L322.711477,11.712 L324.439477,11.712 Z M331.254347,11.968 C331.809013,11.968 332.305013,11.848 332.742347,11.608 C333.17968,11.368 333.51568,11.0666667 333.750347,10.704 L333.750347,10.704 L333.846347,10.704 L333.846347,11.712 L335.526347,11.712 L335.526347,6.608 C335.526347,5.56266667 335.20368,4.74933333 334.558347,4.168 C333.913013,3.58666667 333.00368,3.296 331.830347,3.296 C331.137013,3.296 330.49968,3.43466667 329.918347,3.712 C329.337013,3.98933333 328.870347,4.37866667 328.518347,4.88 L328.518347,4.88 L329.702347,5.792 C329.926347,5.472 330.225013,5.21866667 330.598347,5.032 C330.97168,4.84533333 331.366347,4.752 331.782347,4.752 C332.390347,4.752 332.886347,4.91466667 333.270347,5.24 C333.654347,5.56533333 333.846347,5.98933333 333.846347,6.512 L333.846347,6.512 L333.846347,6.944 C333.61168,6.82666667 333.29968,6.72266667 332.910347,6.632 C332.521013,6.54133333 332.086347,6.496 331.606347,6.496 C330.977013,6.496 330.406347,6.60533333 329.894347,6.824 C329.382347,7.04266667 328.977013,7.35733333 328.678347,7.768 C328.37968,8.17866667 328.230347,8.66666667 328.230347,9.232 C328.230347,9.76533333 328.358347,10.24 328.614347,10.656 C328.870347,11.072 329.22768,11.3946667 329.686347,11.624 C330.145013,11.8533333 330.66768,11.968 331.254347,11.968 Z M331.558347,10.56 C331.078347,10.56 330.694347,10.4373333 330.406347,10.192 C330.118347,9.94666667 329.974347,9.632 329.974347,9.248 C329.974347,8.81066667 330.13168,8.45866667 330.446347,8.192 C330.761013,7.92533333 331.254347,7.792 331.926347,7.792 C332.289013,7.792 332.63568,7.83466667 332.966347,7.92 C333.297013,8.00533333 333.590347,8.12266667 333.846347,8.272 C333.846347,8.67733333 333.74768,9.056 333.550347,9.408 C333.353013,9.76 333.078347,10.04 332.726347,10.248 C332.374347,10.456 331.985013,10.56 331.558347,10.56 Z M338.309216,2.352 C338.629216,2.352 338.903883,2.23733333 339.133216,2.008 C339.362549,1.77866667 339.477216,1.504 339.477216,1.184 C339.477216,0.864 339.362549,0.592 339.133216,0.368 C338.903883,0.144 338.629216,0.032 338.309216,0.032 C337.989216,0.032 337.714549,0.144 337.485216,0.368 C337.255883,0.592 337.141216,0.864 337.141216,1.184 C337.141216,1.504 337.255883,1.77866667 337.485216,2.008 C337.714549,2.23733333 337.989216,2.352 338.309216,2.352 Z M339.173216,11.712 L339.173216,3.552 L337.445216,3.552 L337.445216,11.712 L339.173216,11.712 Z M342.932085,11.712 L342.932085,0.256 L341.204085,0.256 L341.204085,11.712 L342.932085,11.712 Z M347.330955,11.968 C347.885621,11.968 348.381621,11.848 348.818955,11.608 C349.256288,11.368 349.592288,11.0666667 349.826955,10.704 L349.826955,10.704 L349.922955,10.704 L349.922955,11.712 L351.602955,11.712 L351.602955,6.608 C351.602955,5.56266667 351.280288,4.74933333 350.634955,4.168 C349.989621,3.58666667 349.080288,3.296 347.906955,3.296 C347.213621,3.296 346.576288,3.43466667 345.994955,3.712 C345.413621,3.98933333 344.946955,4.37866667 344.594955,4.88 L344.594955,4.88 L345.778955,5.792 C346.002955,5.472 346.301621,5.21866667 346.674955,5.032 C347.048288,4.84533333 347.442955,4.752 347.858955,4.752 C348.466955,4.752 348.962955,4.91466667 349.346955,5.24 C349.730955,5.56533333 349.922955,5.98933333 349.922955,6.512 L349.922955,6.512 L349.922955,6.944 C349.688288,6.82666667 349.376288,6.72266667 348.986955,6.632 C348.597621,6.54133333 348.162955,6.496 347.682955,6.496 C347.053621,6.496 346.482955,6.60533333 345.970955,6.824 C345.458955,7.04266667 345.053621,7.35733333 344.754955,7.768 C344.456288,8.17866667 344.306955,8.66666667 344.306955,9.232 C344.306955,9.76533333 344.434955,10.24 344.690955,10.656 C344.946955,11.072 345.304288,11.3946667 345.762955,11.624 C346.221621,11.8533333 346.744288,11.968 347.330955,11.968 Z M347.634955,10.56 C347.154955,10.56 346.770955,10.4373333 346.482955,10.192 C346.194955,9.94666667 346.050955,9.632 346.050955,9.248 C346.050955,8.81066667 346.208288,8.45866667 346.522955,8.192 C346.837621,7.92533333 347.330955,7.792 348.002955,7.792 C348.365621,7.792 348.712288,7.83466667 349.042955,7.92 C349.373621,8.00533333 349.666955,8.12266667 349.922955,8.272 C349.922955,8.67733333 349.824288,9.056 349.626955,9.408 C349.429621,9.76 349.154955,10.04 348.802955,10.248 C348.450955,10.456 348.061621,10.56 347.634955,10.56 Z M357.745824,11.968 C358.481824,11.968 359.148491,11.784 359.745824,11.416 C360.343157,11.048 360.812491,10.5333333 361.153824,9.872 C361.495157,9.21066667 361.665824,8.464 361.665824,7.632 C361.665824,6.8 361.495157,6.056 361.153824,5.4 C360.812491,4.744 360.343157,4.22933333 359.745824,3.856 C359.148491,3.48266667 358.481824,3.296 357.745824,3.296 C357.159157,3.296 356.633824,3.42666667 356.169824,3.688 C355.705824,3.94933333 355.356491,4.272 355.121824,4.656 L355.121824,4.656 L355.025824,4.656 L355.121824,3.52 L355.121824,0.256 L353.393824,0.256 L353.393824,11.712 L355.025824,11.712 L355.025824,10.624 L355.121824,10.624 C355.356491,10.9973333 355.705824,11.3146667 356.169824,11.576 C356.633824,11.8373333 357.159157,11.968 357.745824,11.968 Z M357.489824,10.384 C357.063157,10.384 356.660491,10.2693333 356.281824,10.04 C355.903157,9.81066667 355.599157,9.488 355.369824,9.072 C355.140491,8.656 355.025824,8.176 355.025824,7.632 C355.025824,7.088 355.140491,6.608 355.369824,6.192 C355.599157,5.776 355.903157,5.45333333 356.281824,5.224 C356.660491,4.99466667 357.063157,4.88 357.489824,4.88 C357.927157,4.88 358.335157,4.99466667 358.713824,5.224 C359.092491,5.45333333 359.393824,5.776 359.617824,6.192 C359.841824,6.608 359.953824,7.088 359.953824,7.632 C359.953824,8.176 359.841824,8.656 359.617824,9.072 C359.393824,9.488 359.092491,9.81066667 358.713824,10.04 C358.335157,10.2693333 357.927157,10.384 357.489824,10.384 Z M364.048693,2.352 C364.368693,2.352 364.64336,2.23733333 364.872693,2.008 C365.102027,1.77866667 365.216693,1.504 365.216693,1.184 C365.216693,0.864 365.102027,0.592 364.872693,0.368 C364.64336,0.144 364.368693,0.032 364.048693,0.032 C363.728693,0.032 363.454027,0.144 363.224693,0.368 C362.99536,0.592 362.880693,0.864 362.880693,1.184 C362.880693,1.504 362.99536,1.77866667 363.224693,2.008 C363.454027,2.23733333 363.728693,2.352 364.048693,2.352 Z M364.912693,11.712 L364.912693,3.552 L363.184693,3.552 L363.184693,11.712 L364.912693,11.712 Z M368.671563,11.712 L368.671563,0.256 L366.943563,0.256 L366.943563,11.712 L368.671563,11.712 Z M371.582432,2.352 C371.902432,2.352 372.177099,2.23733333 372.406432,2.008 C372.635765,1.77866667 372.750432,1.504 372.750432,1.184 C372.750432,0.864 372.635765,0.592 372.406432,0.368 C372.177099,0.144 371.902432,0.032 371.582432,0.032 C371.262432,0.032 370.987765,0.144 370.758432,0.368 C370.529099,0.592 370.414432,0.864 370.414432,1.184 C370.414432,1.504 370.529099,1.77866667 370.758432,2.008 C370.987765,2.23733333 371.262432,2.352 371.582432,2.352 Z M372.446432,11.712 L372.446432,3.552 L370.718432,3.552 L370.718432,11.712 L372.446432,11.712 Z M377.741301,11.84 C378.242635,11.84 378.674635,11.76 379.037301,11.6 L379.037301,11.6 L379.037301,9.92 C378.866635,10.0266667 378.711968,10.104 378.573301,10.152 C378.434635,10.2 378.269301,10.224 378.077301,10.224 C377.703968,10.224 377.426635,10.1226667 377.245301,9.92 C377.074635,9.73866667 376.989301,9.424 376.989301,8.976 L376.989301,8.976 L376.989301,5.056 L378.989301,5.056 L378.989301,3.552 L376.989301,3.552 L376.989301,1.248 L375.261301,1.248 L375.261301,3.552 L373.837301,3.552 L373.837301,5.056 L375.261301,5.056 L375.261301,9.344 C375.261301,10.144 375.490635,10.7626667 375.949301,11.2 C376.151968,11.4026667 376.410635,11.56 376.725301,11.672 C377.039968,11.784 377.378635,11.84 377.741301,11.84 Z M383.212171,15.168 L388.252171,3.552 L386.348171,3.552 L384.092171,9.12 L384.012171,9.12 L381.676171,3.552 L379.756171,3.552 L383.164171,11.264 L381.372171,15.168 L383.212171,15.168 Z" jetway-hook-id="2DB69EA1-0EA7-47F6-B3AB-B0BF9F511E56" id="Generalavailability" fill="#3C4043" fill-rule="nonzero"></path>
            <g jetway-hook-id="EE97B042-6876-492B-9FB1-FE733F1B6776" id="Group-3" transform="translate(80.438347, 0.712000)">
                <line x1="3.94514668e-16" y1="6.5" x2="33.4444444" y2="6.5" jetway-hook-id="10D41B0D-F44A-4907-93F1-0169262C7F20" id="Line-5" stroke="#3C4043" stroke-width="2" stroke-linecap="square"></line>
                <polygon jetway-hook-id="04C7FD58-9ADB-4E78-ABAD-73B17023A236" id="Triangle" fill="#3C4043" points="30.3333333 0 42 7 30.3333333 14"></polygon>
            </g>
            <line x1="200.438347" y1="7.212" x2="233.882791" y2="7.212" jetway-hook-id="4C458DDD-05E6-4322-961E-8070A1B6E16A" id="Line-5" stroke="#3C4043" stroke-width="2" stroke-linecap="square"></line>
            <polygon jetway-hook-id="E6ED7425-F37D-46B5-80B9-F344CBA6BF20" id="Triangle" fill="#3C4043" points="230.77168 0.712 242.438347 7.712 230.77168 14.712"></polygon>
        </g>
        <g jetway-hook-id="1DF47AD5-B4DA-4B05-A0EB-0054D27D84C8" id="Group-12" transform="translate(34.000000, 76.000000)" fill="#D2E3FC" fill-rule="nonzero" stroke="#3C4043">
            <g jetway-hook-id="E486D35D-C9DB-49E1-963D-76F92724454C" id="Icons/users" transform="translate(10.000000, 0.000000)">
                <path d="M8.62,8.24013151 C10.2872934,8.24013151 11.7902237,7.2352232 12.427331,5.69445667 C13.0644384,4.15369013 12.7101119,2.38082281 11.5297258,1.20330171 C10.3493397,0.0257806179 8.57561657,-0.324236474 7.03640283,0.316613253 C5.4971891,0.957462979 4.49595317,2.46283084 4.49998778,4.13011933 C4.49998778,5.22189392 4.93438583,6.26880683 5.70732451,7.03986945 C6.48026319,7.81093207 7.52822863,8.24277571 8.62,8.24013151 Z" jetway-hook-id="F18E7727-B872-4C99-B235-EFEFA159B253" id="Path" stroke-linecap="round" stroke-linejoin="round"></path>
                <path d="M18.62,8.24013151 C20.2872934,8.24013151 21.7902237,7.2352232 22.427331,5.69445667 C23.0644384,4.15369013 22.7101119,2.38082281 21.5297258,1.20330171 C20.3493397,0.0257806179 18.5756166,-0.324236474 17.0364028,0.316613253 C15.4971891,0.957462979 14.4959532,2.46283084 14.4999878,4.13011933 C14.4999878,5.22189392 14.9343858,6.26880683 15.7073245,7.03986945 C16.4802632,7.81093207 17.5282286,8.24277571 18.62,8.24013151 Z" jetway-hook-id="ADF7A653-C997-4532-A960-B51262593917" id="Path" stroke-linecap="round" stroke-linejoin="round"></path>
                <path d="M18.62,11.4701193 C16.21719,11.4701193 14.0437134,12.5989497 12.480311,14.4179871 C10.9465914,16.2024879 10,18.6512359 10,21.3501193 C12.2266667,21.3501193 13.8966667,21.3501193 15.01,21.3501193 C17.7255556,21.3501193 21.7988889,21.3501193 27.23,21.3501193" jetway-hook-id="D3A5632B-A30C-4B4B-89AD-4FB5D48E0880" id="Path" transform="translate(18.615000, 16.410119) scale(-1, 1) translate(-18.615000, -16.410119) "></path>
                <path d="M8.62,11.4701193 C3.86,11.4701193 0,15.9001193 0,21.3501193 L17.23,21.3501193 C17.23,15.9001193 13.37,11.4701193 8.62,11.4701193 Z" jetway-hook-id="1910A89D-E21B-473B-A30D-95022B677236" id="Path"></path>
            </g>
            <g jetway-hook-id="26DD38E3-711E-4275-9394-F9B4702C9D62" id="Group-7">
                <path d="M8.62,8.24013151 C10.2872934,8.24013151 11.7902237,7.2352232 12.427331,5.69445667 C13.0644384,4.15369013 12.7101119,2.38082281 11.5297258,1.20330171 C10.3493397,0.0257806179 8.57561657,-0.324236474 7.03640283,0.316613253 C5.4971891,0.957462979 4.49595317,2.46283084 4.49998778,4.13011933 C4.49998778,5.22189392 4.93438583,6.26880683 5.70732451,7.03986945 C6.48026319,7.81093207 7.52822863,8.24277571 8.62,8.24013151 Z" jetway-hook-id="BF71FC50-33AA-4F5B-91C5-C79EEF8CA829" id="Path" stroke-linecap="round" stroke-linejoin="round"></path>
                <path d="M8.62,11.4701193 C3.86,11.4701193 0,15.9001193 0,21.3501193 L17.23,21.3501193 C17.23,15.9001193 13.37,11.4701193 8.62,11.4701193 Z" jetway-hook-id="C97D67E2-5BCA-4250-8683-CD1676468426" id="Path"></path>
            </g>
        </g>
        <g jetway-hook-id="8F8592E9-44C6-438E-BF7B-D874BF649C83" id="Group-9" transform="translate(204.000000, 68.000000)">
            <path d="M10.506094,13.0238109 C12.5381986,13.0238109 14.3699766,11.7992022 15.1464859,9.92158198 C15.9229951,8.04396181 15.4911405,5.88349728 14.0524807,4.44853792 C12.6138209,3.01357856 10.4519993,2.58703817 8.57599881,3.36799515 C6.69999832,4.14895213 5.47968756,5.9834345 5.48460495,8.01523778 C5.48460495,9.34570412 6.01405121,10.6215008 6.95611229,11.5611387 C7.89817337,12.5007767 9.17543826,13.0270332 10.506094,13.0238109 Z" jetway-hook-id="469B1CFF-4C72-4116-A5CD-12769914E1CC" id="Path" stroke="#3C4043" stroke-linecap="round" stroke-linejoin="round" fill-rule="nonzero"></path>
            <path d="M10.506094,16.9599622 C4.70458503,16.9599622 0,22.3584812 0,29 L21,29 C21,22.3584812 16.295415,16.9599622 10.506094,16.9599622 Z" jetway-hook-id="51BE752C-055D-46E6-9BFD-D3283EE2661C" id="Path" stroke="#3C4043" fill-rule="nonzero"></path>
            <g jetway-hook-id="6068FF52-D03B-498A-8961-22DB0D671396" id="Group-2" transform="translate(1.505754, 0.000000)">
                <path d="M16.2047396,9.5647063 C17.3690244,6.97675449 16.7215089,3.99895411 14.5644067,2.02112829 C12.4073045,0.0433024699 9.16590574,-0.544604485 6.3530623,0.531800126 C3.54021886,1.60820474 1.71050551,4.13669907 1.71781237,6.93716375" jetway-hook-id="5B7968A5-B3D7-424F-9902-3DC25901F7D0" id="Path-Copy" stroke="#3C4043" stroke-linecap="round" stroke-linejoin="round" fill-rule="nonzero"></path>
                <rect jetway-hook-id="6CFE4365-FBF7-4B00-BBBC-03FB787BF8A1" id="Rectangle" fill="#3C4043" x="0" y="6.10459896" width="3.19513589" height="3.84459847" rx="1.59756795"></rect>
                <path d="M17.3404155,4.61351816 L17.4755513,4.61351816 C18.320547,4.61351816 19.0055514,5.29852251 19.0055514,6.14351821 L19.0055514,6.92811658 C19.0055514,7.77311228 18.320547,8.45811663 17.4755513,8.45811663 L17.3404155,8.45811663 C16.4954198,8.45811663 15.8104155,7.77311228 15.8104155,6.92811658 L15.8104155,6.14351821 C15.8104155,5.29852251 16.4954198,4.61351816 17.3404155,4.61351816 Z" jetway-hook-id="77445684-A117-458D-9459-C00A6CF37568" id="Combined-Shape" fill="#3C4043"></path>
                <rect jetway-hook-id="B5F805F7-F795-4C8D-B6E6-1EF18C6DB91B" id="Rectangle" fill="#3C4043" x="8.11638053" y="9.22703632" width="9.95266557" height="2.5" rx="1.25"></rect>
            </g>
        </g>
        <text jetway-hook-id="6F0BE05A-751E-48BA-9004-830D11EFA11D" id="+" font-family="GoogleSans-Medium, Google Sans" font-size="18" font-weight="400" letter-spacing="-0.127272462" fill="#3C4043">
            <tspan x="189.433636" y="83">+</tspan>
        </text>
        <g jetway-hook-id="E71B8780-E91D-4B41-8E17-948F8C6FC748" id="Group-4" transform="translate(140.000000, 59.000000)" fill="#D2E3FC" fill-rule="nonzero" stroke="#3C4043">
            <g jetway-hook-id="AE221150-A7B4-4135-82FC-CBCA983602C6" id="Icons/users" transform="translate(0.000000, 21.000000)">
                <path d="M6.97729845,6.73447695 C8.32685804,6.73447695 9.54337696,5.91318765 10.0590716,4.65395329 C10.5747663,3.39471893 10.2879634,1.94579374 9.33252182,0.983431834 C8.37708027,0.0210699279 6.94137311,-0.264991288 5.69548522,0.258760998 C4.44959733,0.782513284 3.63916555,2.01281709 3.64243129,3.37545504 C3.64243129,4.26773823 3.9940467,5.12335696 4.61968752,5.75352936 C5.24532834,6.38370176 6.09358445,6.736638 6.97729845,6.73447695 Z" jetway-hook-id="FEE3F37D-BE45-4279-B8D7-8CF7749448FE" id="Path" stroke-linecap="round" stroke-linejoin="round"></path>
                <path d="M15.0716122,6.73447695 C16.4211718,6.73447695 17.6376907,5.91318765 18.1533854,4.65395329 C18.6690801,3.39471893 18.3822771,1.94579374 17.4268356,0.983431834 C16.471394,0.0210699279 15.0356869,-0.264991288 13.789799,0.258760998 C12.5439111,0.782513284 11.7334793,2.01281709 11.736745,3.37545504 C11.736745,4.26773823 12.0883604,5.12335696 12.7140013,5.75352936 C13.3396421,6.38370176 14.1878982,6.736638 15.0716122,6.73447695 Z" jetway-hook-id="0C763EC7-3103-4EF9-8FB2-A20C1FFDC05C" id="Path" stroke-linecap="round" stroke-linejoin="round"></path>
                <path d="M15.0716122,9.37427445 C13.1267024,9.37427445 11.3674223,10.2968425 10.1019552,11.7835014 C8.86051455,13.2419345 8.09431374,15.2432419 8.09431374,17.4489796 C9.89664761,17.4489796 11.248398,17.4489796 12.1495649,17.4489796 C14.3476208,17.4489796 17.6447046,17.4489796 22.0408163,17.4489796" jetway-hook-id="EBCEB83B-C97C-44CE-8B86-645ED1700785" id="Path" transform="translate(15.067565, 13.411627) scale(-1, 1) translate(-15.067565, -13.411627) "></path>
                <path d="M6.97729845,9.37427445 C3.12440511,9.37427445 0,12.9948153 0,17.4489796 L13.9465026,17.4489796 C13.9465026,12.9948153 10.8220975,9.37427445 6.97729845,9.37427445 Z" jetway-hook-id="B99CBBB8-4D24-4AA6-8B27-5F33BE441C32" id="Path"></path>
            </g>
            <g jetway-hook-id="2DB7270E-2C12-41BC-BB84-C52DD5C6C893" id="Icons/users" transform="translate(11.020408, 0.000000)">
                <path d="M6.97729845,6.73447695 C8.32685804,6.73447695 9.54337696,5.91318765 10.0590716,4.65395329 C10.5747663,3.39471893 10.2879634,1.94579374 9.33252182,0.983431834 C8.37708027,0.0210699279 6.94137311,-0.264991288 5.69548522,0.258760998 C4.44959733,0.782513284 3.63916555,2.01281709 3.64243129,3.37545504 C3.64243129,4.26773823 3.9940467,5.12335696 4.61968752,5.75352936 C5.24532834,6.38370176 6.09358445,6.736638 6.97729845,6.73447695 Z" jetway-hook-id="884C0A98-F691-4C5A-9476-F3878726263D" id="Path" stroke-linecap="round" stroke-linejoin="round"></path>
                <path d="M15.0716122,6.73447695 C16.4211718,6.73447695 17.6376907,5.91318765 18.1533854,4.65395329 C18.6690801,3.39471893 18.3822771,1.94579374 17.4268356,0.983431834 C16.471394,0.0210699279 15.0356869,-0.264991288 13.789799,0.258760998 C12.5439111,0.782513284 11.7334793,2.01281709 11.736745,3.37545504 C11.736745,4.26773823 12.0883604,5.12335696 12.7140013,5.75352936 C13.3396421,6.38370176 14.1878982,6.736638 15.0716122,6.73447695 Z" jetway-hook-id="9711F74E-9483-4077-B95D-82A31AADBD33" id="Path" stroke-linecap="round" stroke-linejoin="round"></path>
                <path d="M15.0716122,9.37427445 C13.1267024,9.37427445 11.3674223,10.2968425 10.1019552,11.7835014 C8.86051455,13.2419345 8.09431374,15.2432419 8.09431374,17.4489796 C9.89664761,17.4489796 11.248398,17.4489796 12.1495649,17.4489796 C14.3476208,17.4489796 17.6447046,17.4489796 22.0408163,17.4489796" jetway-hook-id="8783B30A-2CAF-40DD-9B9E-4467DF031A3A" id="Path" transform="translate(15.067565, 13.411627) scale(-1, 1) translate(-15.067565, -13.411627) "></path>
                <path d="M6.97729845,9.37427445 C3.12440511,9.37427445 0,12.9948153 0,17.4489796 L13.9465026,17.4489796 C13.9465026,12.9948153 10.8220975,9.37427445 6.97729845,9.37427445 Z" jetway-hook-id="ADAF85DC-62B4-4FE2-9936-276875C98231" id="Path"></path>
            </g>
            <g jetway-hook-id="10134F26-46DD-4994-8A22-ACB62C35551A" id="Icons/users" transform="translate(23.000000, 21.000000)">
                <path d="M6.97729845,6.73447695 C8.32685804,6.73447695 9.54337696,5.91318765 10.0590716,4.65395329 C10.5747663,3.39471893 10.2879634,1.94579374 9.33252182,0.983431834 C8.37708027,0.0210699279 6.94137311,-0.264991288 5.69548522,0.258760998 C4.44959733,0.782513284 3.63916555,2.01281709 3.64243129,3.37545504 C3.64243129,4.26773823 3.9940467,5.12335696 4.61968752,5.75352936 C5.24532834,6.38370176 6.09358445,6.736638 6.97729845,6.73447695 Z" jetway-hook-id="37D94E86-CD9A-40B3-B5D6-D4F3DE5C8334" id="Path" stroke-linecap="round" stroke-linejoin="round"></path>
                <path d="M15.0716122,6.73447695 C16.4211718,6.73447695 17.6376907,5.91318765 18.1533854,4.65395329 C18.6690801,3.39471893 18.3822771,1.94579374 17.4268356,0.983431834 C16.471394,0.0210699279 15.0356869,-0.264991288 13.789799,0.258760998 C12.5439111,0.782513284 11.7334793,2.01281709 11.736745,3.37545504 C11.736745,4.26773823 12.0883604,5.12335696 12.7140013,5.75352936 C13.3396421,6.38370176 14.1878982,6.736638 15.0716122,6.73447695 Z" jetway-hook-id="69E86928-C1F5-4FD3-9E16-BF20B9C27CEA" id="Path" stroke-linecap="round" stroke-linejoin="round"></path>
                <path d="M15.0716122,9.37427445 C13.1267024,9.37427445 11.3674223,10.2968425 10.1019552,11.7835014 C8.86051455,13.2419345 8.09431374,15.2432419 8.09431374,17.4489796 C9.89664761,17.4489796 11.248398,17.4489796 12.1495649,17.4489796 C14.3476208,17.4489796 17.6447046,17.4489796 22.0408163,17.4489796" jetway-hook-id="E95C6273-6DDB-4A19-A9B0-3E1378562CAC" id="Path" transform="translate(15.067565, 13.411627) scale(-1, 1) translate(-15.067565, -13.411627) "></path>
                <path d="M6.97729845,9.37427445 C3.12440511,9.37427445 0,12.9948153 0,17.4489796 L13.9465026,17.4489796 C13.9465026,12.9948153 10.8220975,9.37427445 6.97729845,9.37427445 Z" jetway-hook-id="B78F307D-D00C-4BCF-947A-70F5E51A8FA2" id="Path"></path>
            </g>
        </g>
        <g jetway-hook-id="2398DB46-4875-4BFE-8D26-B1A4C47340CC" id="Group" transform="translate(299.000000, 48.000000)">
            <g jetway-hook-id="59C7200C-287E-4E8D-BBC1-252721F5DF35" id="Objects/globe-color">
                <circle jetway-hook-id="14D1871D-BB44-4421-B0BC-573585B1A96D" id="b19f0c56-98a6-4c84-a23d-f735f0899e0f" fill="#B4C2D3" fill-rule="nonzero" cx="20.9829337" cy="21.0090327" r="20.5136946"></circle>
                <path d="M36.4791641,15.9574074 C36.4882154,21.4098084 34.3262771,26.6415059 30.470842,30.496941 C26.6154069,34.3523761 21.3837095,36.5143144 15.9313084,36.5052631 C4.5992841,36.5052631 -0.111015163,28.1427468 0.571636904,18.2442918 C0.947095541,12.7148101 7.6712184,0.836664097 19.0032427,0.495338064 C30.335267,0.154012031 36.4791641,4.62538307 36.4791641,15.9574074 Z" jetway-hook-id="2C52037B-6B50-4E60-803D-ADE18D32DE8A" id="a152a438-d537-447e-9e36-98e374543736" fill="#D2E3FC" fill-rule="nonzero"></path>
                <path d="M6.06698604,35.1399304 C5.72566001,34.1842176 6.98856633,32.9554438 7.26162716,32.6482504 C8.09006188,31.9143599 9.05184739,31.3465588 10.0946332,30.9757528 C10.6748875,30.702692 11.5623352,30.5661616 12.0743242,30.0541726 C12.5863133,29.5421835 12.2108546,28.2792772 12.0743242,27.3576969 C11.9036612,25.8217297 12.0743242,24.7977516 13.3030979,23.8079061 C14.5318717,22.8180606 16.0337062,21.6234195 14.7366673,20.5994414 C14.0198826,20.0874524 12.0401916,20.8383697 11.2210091,20.8725023 C10.2566337,20.9830335 9.28306578,20.7666851 8.45626827,20.2581154 C7.46642278,19.5413307 6.92030112,18.0053636 7.36402497,16.8448551 C7.53468798,16.332866 7.97841183,15.9232748 8.86585951,15.1382249 C9.68209445,14.463407 10.53685,13.8365862 11.4258048,13.2609317 C11.9163209,12.9894901 12.3100373,12.5719121 12.5521807,12.0662906 C12.9959045,10.7351191 11.9036612,9.64287576 10.8114179,9.16501931 C9.7191746,8.68716286 9.41198117,8.61889766 8.93412472,8.072776 C8.45626827,7.52665435 8.42213567,7.25359352 8.7293291,6.94640009 L9.03652253,6.77573708 C10.0946332,6.36614584 11.8012634,6.91226749 11.7329982,5.37630034 C11.7329982,5.0008417 10.8114179,3.02115071 11.2892744,2.81635509 C12.4156503,2.33849864 13.5761588,1.82650959 14.7707999,1.45105096 L16.2043692,1.04145972 L17.7403364,0.734266287 L19.1739057,0.563603271 C19.9589556,0.495338064 20.6074751,0.495338064 20.9829337,0.495338064 L22.5189008,0.563603271 C22.9540106,0.577239716 23.3875273,0.62287305 23.8159398,0.700133684 L24.6351223,0.802531494 C26.9220067,1.55344877 28.1166478,4.69364827 26.8537415,6.74160447 C26.4441502,7.42425654 25.7956308,7.97037819 25.5567025,8.75542807 C25.3177743,9.54047795 25.6249678,10.4620582 26.034559,11.2129755 C26.4441502,11.9638928 27.0244045,12.6465449 27.3315979,13.4315947 C28.526239,16.2304682 26.5124154,18.0394962 24.4985918,19.6095959 C22.4847682,21.1796957 21.2901271,21.9647456 19.6176296,23.0228563 C17.945132,24.080967 14.9073303,25.1732103 15.9313084,28.1768794 C16.2726344,29.1667249 16.8187561,30.1565704 16.7504909,31.2146811 C16.6480931,32.9213112 14.9414629,34.2183502 14.9073303,35.9249803 C14.8731977,37.0513562 15.5899824,38.0753343 16.4091649,38.8945168 C17.2283473,39.7136993 18.5595189,40.4646166 18.7301819,41.4203295 C18.3205906,41.5227273 17.8427342,41.3179317 17.433143,41.2496664 L15.7265128,40.8742078 L14.6684021,40.5670144 C14.1223737,40.3929946 13.5867536,40.1878635 13.0641697,39.9526275 L11.8695286,39.4065059 L10.3335615,38.5873234 L9.10478774,37.7681409 L8.25147265,37.1196214 C8.11494224,37.0172236 7.77361621,36.7441628 7.26162716,36.2663064 C6.8257763,35.9328843 6.42544784,35.5554318 6.06698604,35.1399304 Z" jetway-hook-id="2D738959-E3C9-49AD-97AE-1B709167CD45" id="Path" fill="#5BB974" fill-rule="nonzero"></path>
                <path d="M41.0529045,16.674192 C40.3361198,15.5819487 37.9468376,16.8448551 37.2983181,17.4592419 C36.4674242,18.3038294 35.8984551,19.3706464 35.6599531,20.5311762 C35.4959426,21.1076773 35.4495125,21.7112689 35.5234227,22.3060716 C35.8647488,24.3198952 37.7079093,25.7193319 38.1175006,27.7672881 C38.1625928,27.9688124 38.1741252,28.176396 38.1516332,28.381675 C38.0505935,28.8602113 37.7178228,29.2569764 37.2641855,29.4397857 C36.2402074,29.9517747 35.0455663,29.9517747 34.0215882,30.532029 C33.0322625,31.0912358 32.2620767,31.9697291 31.8371016,33.023709 C31.3801733,34.1491845 31.2731186,35.3862603 31.5299081,36.5734998 C31.802969,37.7340083 31.9394994,38.5190582 32.9976101,37.6998757 L33.5437317,37.2220193 L33.953323,36.9489584 L34.6018424,36.3687042 C34.8306327,36.189868 35.0472834,35.9960227 35.2503619,35.7884499 L35.8647488,35.1740631 L36.4108704,34.5938088 L37.0252573,33.8428915 L37.5713789,33.1602395 C37.8444397,32.7847808 38.0492354,32.4434548 38.1857658,32.2386592 C38.4268032,31.8899273 38.6434909,31.5249795 38.8342852,31.1464159 C39.0339475,30.8265012 39.2162516,30.4960751 39.3804069,30.1565704 C39.5706936,29.8020146 39.7416077,29.4373978 39.8923959,29.0643271 L40.3019872,28.0062164 C40.404385,27.7672881 40.5067828,27.3918295 40.6433132,26.9481056 C40.7640504,26.5894335 40.866579,26.2248872 40.9505066,25.8558623 L41.1894349,24.763619 C41.2235675,24.4905582 41.2918327,24.1150996 41.3600979,23.6713757 C41.4283631,23.2276519 41.4283631,23.0911215 41.4624957,22.6473976 C41.4966283,22.2036738 41.4966283,21.8282151 41.5307609,21.4868891 L41.5307609,20.5653088 C41.4966283,20.1557176 41.4966283,19.8143916 41.4624957,19.5754633 C41.46223,19.2783462 41.4394093,18.9816779 41.3942305,18.6880156 C41.3794056,18.538996 41.356618,18.3908764 41.3259653,18.2442918 C41.3147284,17.9913939 41.2804539,17.7400475 41.2235675,17.4933745 C41.1805561,17.2176058 41.1235954,16.9441942 41.0529045,16.674192 Z" jetway-hook-id="8FFBA03E-0FD8-4E0E-B567-6FB695EC9DB9" id="Path" fill="#5BB974" fill-rule="nonzero"></path>
                <circle jetway-hook-id="8D8E4233-2B47-4121-BA18-D4CBEE07DA90" id="b1edb28b-9013-4275-896e-6845e6a3feef" stroke="#3C4043" cx="20.9829337" cy="21.0090327" r="20.5136946"></circle>
            </g>
        </g>
        <g jetway-hook-id="99DBA7D0-F76B-420D-8B36-650909FCD8DB" id="Group-10" transform="translate(328.000000, 62.000000)">
            <g jetway-hook-id="F442E74B-AF72-4CF4-9249-8DAB24DF1699" id="Group-8">
                <rect jetway-hook-id="90E4D3E2-5454-497E-9392-AD353AAAA200" id="Rectangle" stroke="#3C4043" fill="#FFFFFF" x="0" y="0" width="31" height="35"></rect>
                <path d="M8.639272,17.192 C9.103272,17.192 9.557272,17.1 10.001272,16.916 C10.445272,16.732 10.809272,16.45 11.093272,16.07 C11.377272,15.69 11.519272,15.22 11.519272,14.66 C11.519272,13.98 11.319272,13.436 10.919272,13.028 C10.519272,12.62 9.951272,12.288 9.215272,12.032 L9.215272,12.032 L8.663272,11.84 C8.151272,11.664 7.773272,11.478 7.529272,11.282 C7.285272,11.086 7.163272,10.84 7.163272,10.544 C7.163272,10.224 7.299272,9.96 7.571272,9.752 C7.843272,9.544 8.175272,9.44 8.567272,9.44 C8.975272,9.44 9.307272,9.544 9.563272,9.752 C9.819272,9.96 9.987272,10.208 10.067272,10.496 L10.067272,10.496 L11.255272,9.992 C11.095272,9.536 10.791272,9.126 10.343272,8.762 C9.895272,8.398 9.299272,8.216 8.555272,8.216 C8.035272,8.216 7.569272,8.32 7.157272,8.528 C6.745272,8.736 6.425272,9.02 6.197272,9.38 C5.969272,9.74 5.855272,10.132 5.855272,10.556 C5.855272,11.172 6.049272,11.666 6.437272,12.038 C6.825272,12.41 7.311272,12.7 7.895272,12.908 L7.895272,12.908 L8.435272,13.1 C9.083272,13.324 9.539272,13.554 9.803272,13.79 C10.067272,14.026 10.199272,14.324 10.199272,14.684 C10.199272,15.076 10.049272,15.384 9.749272,15.608 C9.449272,15.832 9.083272,15.944 8.651272,15.944 C8.187272,15.944 7.791272,15.792 7.463272,15.488 C7.135272,15.184 6.907272,14.792 6.779272,14.312 L6.779272,14.312 L5.531272,14.816 C5.755272,15.568 6.151272,16.152 6.719272,16.568 C7.287272,16.984 7.927272,17.192 8.639272,17.192 Z M18.074424,17 L18.074424,15.752 L14.378424,15.752 L14.378424,8.408 L13.058424,8.408 L13.058424,17 L18.074424,17 Z M20.093576,17 L20.885576,14.792 L24.389576,14.792 L25.181576,17 L26.633576,17 L23.381576,8.408 L21.881576,8.408 L18.641576,17 L20.093576,17 Z M23.957576,13.568 L21.317576,13.568 L22.277576,10.94 L22.601576,9.956 L22.673576,9.956 L22.997576,10.94 L23.957576,13.568 Z" jetway-hook-id="7D4E8C84-456D-4B03-8F1E-7B210E6D911F" id="SLA" fill="#3C4043" fill-rule="nonzero"></path>
            </g>
            <line x1="5" y1="22.5" x2="27" y2="22.5" jetway-hook-id="6CB7A8C5-CFB9-471A-A188-6F6EB2805FF0" id="Line-4" stroke="#3C4043" stroke-linecap="round" stroke-linejoin="round"></line>
            <line x1="5" y1="27.5" x2="27" y2="27.5" jetway-hook-id="61DC9EFA-CA4F-402A-944A-55FDBAA92381" id="Line-4" stroke="#3C4043" stroke-linecap="round" stroke-linejoin="round"></line>
        </g>
        <g jetway-hook-id="43A53D4D-4F0B-4A08-80CF-5577E59B02B1" id="Group-7-Copy" filter="url(#filter-1)" transform="translate(179.000000, 3.000000)">
            <g jetway-hook-id="2DBFB517-2985-4F74-9337-A558D4A18419" id="Group-6">
                <rect jetway-hook-id="4B60603D-DAE3-4FAA-B03E-C4D9883FB3F9" id="Rectangle" stroke="#3C4043" fill="#FFFFFF" stroke-linejoin="round" x="0" y="0" width="55" height="40"></rect>
                <g jetway-hook-id="405C1B45-7D8E-41A0-8278-6A950C08F168" id="Group-5" transform="translate(0.338272, 0.338983)">
                    <line x1="3.04445066" y1="14.9152542" x2="8.45680738" y2="14.9152542" jetway-hook-id="EA238770-B417-473D-BEFB-41355874F091" id="Line-2" stroke="#3C4043" stroke-linecap="square"></line>
                    <line x1="3.04445066" y1="21.6949153" x2="8.45680738" y2="21.6949153" jetway-hook-id="56C185F9-645B-477C-B4F2-456BA566C398" id="Line-2" stroke="#3C4043" stroke-linecap="square"></line>
                    <line x1="3.04445066" y1="28.4745763" x2="8.45680738" y2="28.4745763" jetway-hook-id="B58E1C42-D818-4DBE-8857-AF81DB30B12E" id="Line-2" stroke="#3C4043" stroke-linecap="square"></line>
                    <rect jetway-hook-id="FADC8984-E73B-4C5C-AD07-588AD4CE36AD" id="Rectangle" fill="#4285F4" x="0" y="0" width="54.4618395" height="8.81355932"></rect>
                    <rect jetway-hook-id="512ABF2D-9CA3-4168-A5D3-6160C2F84A03" id="Rectangle" fill="#F1F3F4" x="18.6049762" y="12.5423729" width="31.1210512" height="4.74576271"></rect>
                    <rect jetway-hook-id="275AEA88-F2C9-46F7-A5AD-1752419BA728" id="Rectangle" fill="#F1F3F4" x="18.6049762" y="20.6779661" width="31.1210512" height="4.74576271"></rect>
                    <rect jetway-hook-id="36D491B8-E908-46AB-B005-5AA242911F64" id="Rectangle" fill="#F1F3F4" x="18.6049762" y="28.8135593" width="31.1210512" height="4.74576271"></rect>
                    <g jetway-hook-id="A3C0BEF0-1F21-4D32-B1CD-CC0262FDF282" id="UI/menu-light-grey" transform="translate(3.382723, 1.584094)" stroke="#FFFFFF" stroke-linecap="round" stroke-linejoin="round">
                        <line x1="7.33511115e-17" y1="0.338983051" x2="4.73581213" y2="0.338983051" jetway-hook-id="99F13D54-15E4-4665-9D2B-18F1D4892509" id="Line"></line>
                        <line x1="7.33511115e-17" y1="2.03389831" x2="4.73581213" y2="2.03389831" jetway-hook-id="272435E8-186A-46D4-B6E4-F4238B4FBC7B" id="Line"></line>
                        <line x1="7.33511115e-17" y1="3.72881356" x2="4.73581213" y2="3.72881356" jetway-hook-id="7F109249-49C1-435A-AF82-BCAE11700FAE" id="Line"></line>
                    </g>
                </g>
            </g>
            <line x1="11.5" y1="9" x2="11.5" y2="40" jetway-hook-id="36131DFE-17E9-4093-8477-ABBF7407C142" id="Line" stroke="#3C4043" stroke-linecap="square"></line>
        </g>
    </g>
</svg>